#!OML:ASF H:\MichaelJackson\Top Level 1\Subject 1\Session 1\male.ASF
:FULLY-SPECIFIED
:DEGREES
562
root 7.20317 16.8479 29.5809 -3.562 20.9139 -4.59894
lowerback 12.0785 -4.79253 1.58638
upperback 2.31732 -5.97629 3.03648
thorax -4.14298 -2.95212 3.20025
lowerneck -8.71373 -5.3094 0.604143
upperneck 1.50025 -7.20418 1.67733
head 1.99719 -3.53779 0.11343
rclavicle 1.0963e-013 -1.86858e-014
rhumerus -45.2542 -2.95792 -83.8369
rradius 100.457
rwrist -13.9126
rhand -0.512775 -17.3597
rfingers 7.12502
rthumb 25.0991 -405.73
lclavicle 1.0963e-013 -1.86858e-014
lhumerus -53.2377 -39.2977 118.366
lradius 75.5279
lwrist 19.7632
lhand 14.719 20.012
lfingers 7.12502
lthumb 39.587 45.3613
rfemur -55.191 -9.22286 -6.00302
rtibia 65.6421
rfoot 15.6695 3.18505
rtoes 20.297
lfemur -18.644 23.4934 -15.6239
ltibia 39.943
lfoot -15.3128 10.8836
ltoes 0.295037
563
root 7.18053 16.8195 29.5942 -3.61677 20.2854 -4.14942
lowerback 12.0313 -4.57207 1.30951
upperback 2.41456 -5.73791 2.76478
thorax -4.02566 -2.83406 3.02344
lowerneck -8.52006 -5.32084 0.593872
upperneck 1.32782 -7.21802 1.80804
head 1.91138 -3.54436 0.164393
rclavicle 2.65874e-014 -1.33186e-014
rhumerus -45.4831 -2.50912 -84.4817
rradius 100.518
rwrist -7.48001
rhand -5.47955 -16.6053
rfingers 7.12502
rthumb 20.3326 -405.561
lclavicle 2.65874e-014 -1.33186e-014
lhumerus -53.4784 -38.997 118.08
lradius 75.4779
lwrist 20.1222
lhand 14.6365 19.7239
lfingers 7.12502
lthumb 39.5094 45.096
rfemur -55.5388 -10.9581 -5.14101
rtibia 69.294
rfoot 17.6024 2.81278
rtoes 20.4857
lfemur -18.5444 23.392 -15.6157
ltibia 40.6868
lfoot -15.7058 10.8615
ltoes 2.0492
564
root 7.15675 16.7932 29.6097 -3.62689 19.5846 -3.60003
lowerback 11.9138 -4.31458 0.965804
upperback 2.49973 -5.46204 2.44515
thorax -3.88235 -2.69751 2.82421
lowerneck -8.30841 -5.33469 0.582765
upperneck 1.21688 -7.23543 1.93013
head 1.84266 -3.55256 0.211921
rclavicle -5.20319e-014 2.66371e-014
rhumerus -45.7853 -1.90127 -85.1913
rradius 100.436
rwrist 0.271549
rhand -10.8119 -17.0696
rfingers 7.12502
rthumb 15.2017 -406.491
lclavicle -5.20319e-014 2.66371e-014
lhumerus -53.6948 -38.5993 117.714
lradius 75.4123
lwrist 20.5941
lhand 14.4298 19.4108
lfingers 7.12502
lthumb 39.3147 44.84
rfemur -55.8723 -12.6184 -4.47009
rtibia 72.9344
rfoot 19.9212 2.42307
rtoes 21.6797
lfemur -18.3802 23.3254 -15.6173
ltibia 41.3958
lfoot -16.1647 10.518
ltoes 4.41202
565
root 7.13106 16.7692 29.6277 -3.61184 18.8942 -2.98264
lowerback 11.7401 -4.04822 0.569892
upperback 2.56652 -5.18128 2.09079
thorax -3.7262 -2.55851 2.61591
lowerneck -8.08732 -5.35071 0.578495
upperneck 1.18439 -7.2574 2.04005
head 1.79751 -3.56258 0.253132
rclavicle 1.49089e-016 -2.52457e-014
rhumerus -46.1442 -1.1916 -85.8975
rradius 100.269
rwrist 8.52204
rhand -15.7573 -19.0605
rfingers 7.12502
rthumb 10.4343 -408.782
lclavicle 1.49089e-016 -2.52457e-014
lhumerus -53.8802 -38.1224 117.286
lradius 75.3163
lwrist 21.152
lhand 14.1278 19.1305
lfingers 7.12502
lthumb 39.03 44.6419
rfemur -56.0803 -14.2254 -4.01017
rtibia 76.4317
rfoot 22.5397 1.98994
rtoes 23.333
lfemur -18.1647 23.2654 -15.5969
ltibia 42.0625
lfoot -16.5844 9.78539
ltoes 7.07006
566
root 7.1027 16.7467 29.6477 -3.56289 18.2204 -2.32226
lowerback 11.5169 -3.77273 0.131096
upperback 2.60471 -4.89187 1.71516
thorax -3.57137 -2.41506 2.40874
lowerneck -7.87624 -5.37495 0.588326
upperneck 1.24466 -7.29326 2.13396
head 1.7835 -3.57871 0.284519
rclavicle -4.9075e-014 2.72335e-014
rhumerus -46.5432 -0.399173 -86.5842
rradius 100.115
rwrist 16.2037
rhand -19.9117 -22.3868
rfingers 7.12502
rthumb 6.42509 -412.269
lclavicle -4.9075e-014 2.72335e-014
lhumerus -54.024 -37.5917 116.819
lradius 75.1695
lwrist 21.7398
lhand 13.7768 18.9066
lfingers 7.12502
lthumb 38.699 44.5122
rfemur -56.1419 -15.7701 -3.74813
rtibia 79.6811
rfoot 25.3547 1.52991
rtoes 24.9469
lfemur -17.9303 23.2106 -15.5359
ltibia 42.679
lfoot -16.8742 8.63879
ltoes 9.80542
